<svg id="visual" viewBox="0 0 1200 940" width="1200" height="940" xmlns="http://www.w3.org/2000/svg" xmlns:xlink="http://www.w3.org/1999/xlink" version="1.1"><rect x="0" y="0" width="1200" height="940" fill="#200548"></rect><path d="M362 940L356 940L356 899L316 899L316 858L320 858L320 817L305 817L305 777L327 777L327 736L419 736L419 695L390 695L390 654L328 654L328 613L427 613L427 572L323 572L323 531L296 531L296 490L336 490L336 450L331 450L331 409L319 409L319 368L364 368L364 327L334 327L334 286L324 286L324 245L319 245L319 204L423 204L423 163L298 163L298 123L356 123L356 82L351 82L351 41L405 41L405 0L1200 0L1200 41L1200 41L1200 82L1200 82L1200 123L1200 123L1200 163L1200 163L1200 204L1200 204L1200 245L1200 245L1200 286L1200 286L1200 327L1200 327L1200 368L1200 368L1200 409L1200 409L1200 450L1200 450L1200 490L1200 490L1200 531L1200 531L1200 572L1200 572L1200 613L1200 613L1200 654L1200 654L1200 695L1200 695L1200 736L1200 736L1200 777L1200 777L1200 817L1200 817L1200 858L1200 858L1200 899L1200 899L1200 940L1200 940Z" fill="#009473"></path><path d="M590 940L619 940L619 899L595 899L595 858L688 858L688 817L665 817L665 777L634 777L634 736L644 736L644 695L681 695L681 654L646 654L646 613L622 613L622 572L690 572L690 531L687 531L687 490L595 490L595 450L609 450L609 409L644 409L644 368L607 368L607 327L645 327L645 286L586 286L586 245L644 245L644 204L647 204L647 163L695 163L695 123L620 123L620 82L673 82L673 41L612 41L612 0L1200 0L1200 41L1200 41L1200 82L1200 82L1200 123L1200 123L1200 163L1200 163L1200 204L1200 204L1200 245L1200 245L1200 286L1200 286L1200 327L1200 327L1200 368L1200 368L1200 409L1200 409L1200 450L1200 450L1200 490L1200 490L1200 531L1200 531L1200 572L1200 572L1200 613L1200 613L1200 654L1200 654L1200 695L1200 695L1200 736L1200 736L1200 777L1200 777L1200 817L1200 817L1200 858L1200 858L1200 899L1200 899L1200 940L1200 940Z" fill="#005686"></path><path d="M852 940L912 940L912 899L948 899L948 858L872 858L872 817L866 817L866 777L953 777L953 736L884 736L884 695L955 695L955 654L896 654L896 613L905 613L905 572L890 572L890 531L951 531L951 490L919 490L919 450L843 450L843 409L938 409L938 368L914 368L914 327L860 327L860 286L957 286L957 245L844 245L844 204L855 204L855 163L860 163L860 123L873 123L873 82L949 82L949 41L936 41L936 0L1200 0L1200 41L1200 41L1200 82L1200 82L1200 123L1200 123L1200 163L1200 163L1200 204L1200 204L1200 245L1200 245L1200 286L1200 286L1200 327L1200 327L1200 368L1200 368L1200 409L1200 409L1200 450L1200 450L1200 490L1200 490L1200 531L1200 531L1200 572L1200 572L1200 613L1200 613L1200 654L1200 654L1200 695L1200 695L1200 736L1200 736L1200 777L1200 777L1200 817L1200 817L1200 858L1200 858L1200 899L1200 899L1200 940L1200 940Z" fill="#200548"></path></svg>